<?xml version="1.0" encoding="UTF-8" standalone="no"?>
<!-- Created with Inkscape (http://www.inkscape.org/) -->

<svg
   width="710"
   height="150"
   viewBox="0 0 187.85416 39.6875"
   version="1.1"
   id="svg1"
   xml:space="preserve"
   inkscape:export-filename="bitmap.png"
   inkscape:export-xdpi="96"
   inkscape:export-ydpi="96"
   xmlns:inkscape="http://www.inkscape.org/namespaces/inkscape"
   xmlns:sodipodi="http://sodipodi.sourceforge.net/DTD/sodipodi-0.dtd"
   xmlns="http://www.w3.org/2000/svg"
   xmlns:svg="http://www.w3.org/2000/svg"><sodipodi:namedview
     id="namedview1"
     pagecolor="#ffffff"
     bordercolor="#000000"
     borderopacity="0.25"
     inkscape:showpageshadow="2"
     inkscape:pageopacity="0.0"
     inkscape:pagecheckerboard="0"
     inkscape:deskcolor="#d1d1d1"
     inkscape:document-units="mm" /><defs
     id="defs1"><rect
       x="341.53256"
       y="15.556349"
       width="37.476658"
       height="123.39013"
       id="rect184" /><rect
       x="77.290611"
       y="73.317726"
       width="26.369247"
       height="25.606846"
       id="rect1" /><rect
       x="77.290611"
       y="73.317726"
       width="26.369247"
       height="25.606846"
       id="rect35" /><rect
       x="77.290611"
       y="73.317726"
       width="26.369247"
       height="25.606846"
       id="rect36" /><rect
       x="77.290611"
       y="73.317726"
       width="26.369247"
       height="25.606846"
       id="rect37" /><rect
       x="77.290611"
       y="73.317726"
       width="26.369247"
       height="25.606846"
       id="rect44" /><rect
       x="77.290611"
       y="73.317726"
       width="26.369247"
       height="25.606846"
       id="rect45" /><rect
       x="77.290611"
       y="73.317726"
       width="26.369247"
       height="25.606846"
       id="rect46" /><rect
       x="77.290611"
       y="73.317726"
       width="26.369247"
       height="25.606846"
       id="rect78" /><rect
       x="77.290611"
       y="73.317726"
       width="26.369247"
       height="25.606846"
       id="rect124" /><rect
       x="77.290611"
       y="73.317726"
       width="26.369247"
       height="25.606846"
       id="rect125" /><rect
       x="77.290611"
       y="73.317726"
       width="26.369247"
       height="25.606846"
       id="rect126" /><rect
       x="77.290611"
       y="73.317726"
       width="26.369247"
       height="25.606846"
       id="rect127" /><rect
       x="77.290611"
       y="73.317726"
       width="26.369247"
       height="25.606846"
       id="rect128" /><rect
       x="77.290611"
       y="73.317726"
       width="26.369247"
       height="25.606846"
       id="rect129" /><rect
       x="77.290611"
       y="73.317726"
       width="26.369247"
       height="25.606846"
       id="rect130" /><rect
       x="77.290611"
       y="73.317726"
       width="26.369247"
       height="25.606846"
       id="rect131" /></defs><g
     inkscape:label="Capa 1"
     inkscape:groupmode="layer"
     id="layer1"><g
       id="g88"
       inkscape:label="controles1"
       transform="matrix(-1,0,0,1,195.08073,0)"><g
         id="g2"
         inkscape:label="letraS"
         transform="matrix(0.04536482,0,0,-0.04536482,-151.426,28.853731)"><path
           d="m 3964.6342,151.14953 c -5.0606,-2.39709 -11.7192,-7.99028 -14.6489,-11.98543 -5.3269,-7.19125 -5.5932,-11.45274 -6.3922,-97.215114 -0.7991,-99.079519 -0.2664,-101.210259 16.2469,-113.462029 7.1912,-5.32686 11.4527,-5.5932 94.5516,-6.39223 55.3994,-0.53268 90.5566,0 96.4161,1.8644 5.3269,1.59806 13.0508,6.39223 17.3123,10.92006 l 7.9903,8.25663 v 95.617055 95.350718 l -6.6586,7.19126 c -13.5835,14.64885 -14.1161,14.64885 -108.4015,14.64885 -78.0384,0 -88.4258,-0.53269 -96.416,-4.79417 z"
           id="path14-5"
           style="stroke-width:0.266343" /><text
           xml:space="preserve"
           transform="matrix(8.9545432,0,0,-8.9545432,3250.9301,805.36193)"
           id="text1"
           style="font-style:normal;font-variant:normal;font-weight:bold;font-stretch:normal;font-size:21.3333px;font-family:Arial;-inkscape-font-specification:'Arial Bold';text-align:center;white-space:pre;shape-inside:url(#rect1);fill:#ffffff" /></g><g
         id="g35"
         inkscape:label="letraW"
         transform="matrix(0.04536482,0,0,-0.04536482,-151.426,17.12335)"><path
           d="m 3964.6342,151.14953 c -5.0606,-2.39709 -11.7192,-7.99028 -14.6489,-11.98543 -5.3269,-7.19125 -5.5932,-11.45274 -6.3922,-97.215114 -0.7991,-99.079519 -0.2664,-101.210259 16.2469,-113.462029 7.1912,-5.32686 11.4527,-5.5932 94.5516,-6.39223 55.3994,-0.53268 90.5566,0 96.4161,1.8644 5.3269,1.59806 13.0508,6.39223 17.3123,10.92006 l 7.9903,8.25663 v 95.617055 95.350718 l -6.6586,7.19126 c -13.5835,14.64885 -14.1161,14.64885 -108.4015,14.64885 -78.0384,0 -88.4258,-0.53269 -96.416,-4.79417 z"
           id="path35"
           style="stroke-width:0.266343" /><text
           xml:space="preserve"
           transform="matrix(8.9545432,0,0,-8.9545432,3250.9301,805.36193)"
           id="text35"
           style="font-style:normal;font-variant:normal;font-weight:bold;font-stretch:normal;font-size:21.3333px;font-family:Arial;-inkscape-font-specification:'Arial Bold';text-align:center;white-space:pre;shape-inside:url(#rect35);fill:#ffffff" /></g><g
         id="g36"
         inkscape:label="letraA"
         transform="matrix(0.04536482,0,0,-0.04536482,-164.02531,28.853731)"><path
           d="m 3964.6342,151.14953 c -5.0606,-2.39709 -11.7192,-7.99028 -14.6489,-11.98543 -5.3269,-7.19125 -5.5932,-11.45274 -6.3922,-97.215114 -0.7991,-99.079519 -0.2664,-101.210259 16.2469,-113.462029 7.1912,-5.32686 11.4527,-5.5932 94.5516,-6.39223 55.3994,-0.53268 90.5566,0 96.4161,1.8644 5.3269,1.59806 13.0508,6.39223 17.3123,10.92006 l 7.9903,8.25663 v 95.617055 95.350718 l -6.6586,7.19126 c -13.5835,14.64885 -14.1161,14.64885 -108.4015,14.64885 -78.0384,0 -88.4258,-0.53269 -96.416,-4.79417 z"
           id="path36"
           style="stroke-width:0.266343" /><text
           xml:space="preserve"
           transform="matrix(8.9545432,0,0,-8.9545432,3250.9301,805.36193)"
           id="text36"
           style="font-style:normal;font-variant:normal;font-weight:bold;font-stretch:normal;font-size:21.3333px;font-family:Arial;-inkscape-font-specification:'Arial Bold';text-align:center;white-space:pre;shape-inside:url(#rect36);fill:#ffffff" /></g><g
         id="g37"
         inkscape:label="letraD"
         transform="matrix(0.04536482,0,0,-0.04536482,-138.91359,28.853731)"><path
           d="m 3964.6342,151.14953 c -5.0606,-2.39709 -11.7192,-7.99028 -14.6489,-11.98543 -5.3269,-7.19125 -5.5932,-11.45274 -6.3922,-97.215114 -0.7991,-99.079519 -0.2664,-101.210259 16.2469,-113.462029 7.1912,-5.32686 11.4527,-5.5932 94.5516,-6.39223 55.3994,-0.53268 90.5566,0 96.4161,1.8644 5.3269,1.59806 13.0508,6.39223 17.3123,10.92006 l 7.9903,8.25663 v 95.617055 95.350718 l -6.6586,7.19126 c -13.5835,14.64885 -14.1161,14.64885 -108.4015,14.64885 -78.0384,0 -88.4258,-0.53269 -96.416,-4.79417 z"
           id="path37"
           style="stroke-width:0.266343" /><text
           xml:space="preserve"
           transform="matrix(8.9545432,0,0,-8.9545432,3250.9301,805.36193)"
           id="text37"
           style="font-style:normal;font-variant:normal;font-weight:bold;font-stretch:normal;font-size:21.3333px;font-family:Arial;-inkscape-font-specification:'Arial Bold';text-align:center;white-space:pre;shape-inside:url(#rect37);fill:#ffffff" /></g><g
         id="g44"
         inkscape:label="letraO"
         transform="matrix(0.04536482,0,0,-0.04536482,-98.099925,9.3391491)"><path
           d="m 3964.6342,151.14953 c -5.0606,-2.39709 -11.7192,-7.99028 -14.6489,-11.98543 -5.3269,-7.19125 -5.5932,-11.45274 -6.3922,-97.215114 -0.7991,-99.079519 -0.2664,-101.210259 16.2469,-113.462029 7.1912,-5.32686 11.4527,-5.5932 94.5516,-6.39223 55.3994,-0.53268 90.5566,0 96.4161,1.8644 5.3269,1.59806 13.0508,6.39223 17.3123,10.92006 l 7.9903,8.25663 v 95.617055 95.350718 l -6.6586,7.19126 c -13.5835,14.64885 -14.1161,14.64885 -108.4015,14.64885 -78.0384,0 -88.4258,-0.53269 -96.416,-4.79417 z"
           id="path44"
           style="stroke-width:0.266343" /><text
           xml:space="preserve"
           transform="matrix(8.9545432,0,0,-8.9545432,3250.9301,805.36193)"
           id="text44"
           style="font-style:normal;font-variant:normal;font-weight:bold;font-stretch:normal;font-size:21.3333px;font-family:Arial;-inkscape-font-specification:'Arial Bold';text-align:center;white-space:pre;shape-inside:url(#rect44);fill:#ffffff"><tspan
             x="82.178724"
             y="92.534423"
             id="tspan1">O</tspan></text></g><g
         id="g45"
         inkscape:label="letraP"
         transform="matrix(0.04536482,0,0,-0.04536482,-98.099925,22.002918)"><path
           d="m 3964.6342,151.14953 c -5.0606,-2.39709 -11.7192,-7.99028 -14.6489,-11.98543 -5.3269,-7.19125 -5.5932,-11.45274 -6.3922,-97.215114 -0.7991,-99.079519 -0.2664,-101.210259 16.2469,-113.462029 7.1912,-5.32686 11.4527,-5.5932 94.5516,-6.39223 55.3994,-0.53268 90.5566,0 96.4161,1.8644 5.3269,1.59806 13.0508,6.39223 17.3123,10.92006 l 7.9903,8.25663 v 95.617055 95.350718 l -6.6586,7.19126 c -13.5835,14.64885 -14.1161,14.64885 -108.4015,14.64885 -78.0384,0 -88.4258,-0.53269 -96.416,-4.79417 z"
           id="path45"
           style="stroke-width:0.266343" /><text
           xml:space="preserve"
           transform="matrix(-8.9545432,0,0,-8.9545432,4876.3954,805.36193)"
           id="text45"
           style="font-style:normal;font-variant:normal;font-weight:bold;font-stretch:normal;font-size:21.3333px;font-family:Arial;-inkscape-font-specification:'Arial Bold';text-align:center;white-space:pre;shape-inside:url(#rect45);fill:#ffffff"><tspan
             x="83.361014"
             y="92.534423"
             id="tspan2">P</tspan></text></g><g
         id="g46"
         inkscape:label="letraI"
         transform="matrix(0.04536482,0,0,-0.04536482,-98.099925,34.564335)"><path
           d="m 3964.6342,151.14953 c -5.0606,-2.39709 -11.7192,-7.99028 -14.6489,-11.98543 -5.3269,-7.19125 -5.5932,-11.45274 -6.3922,-97.215114 -0.7991,-99.079519 -0.2664,-101.210259 16.2469,-113.462029 7.1912,-5.32686 11.4527,-5.5932 94.5516,-6.39223 55.3994,-0.53268 90.5566,0 96.4161,1.8644 5.3269,1.59806 13.0508,6.39223 17.3123,10.92006 l 7.9903,8.25663 v 95.617055 95.350718 l -6.6586,7.19126 c -13.5835,14.64885 -14.1161,14.64885 -108.4015,14.64885 -78.0384,0 -88.4258,-0.53269 -96.416,-4.79417 z"
           id="path46"
           style="stroke-width:0.266343" /><text
           xml:space="preserve"
           transform="matrix(8.9545432,0,0,-8.9545432,3250.9301,805.36193)"
           id="text46"
           style="font-style:normal;font-variant:normal;font-weight:bold;font-stretch:normal;font-size:21.3333px;font-family:Arial;-inkscape-font-specification:'Arial Bold';text-align:center;white-space:pre;shape-inside:url(#rect46);fill:#ffffff"><tspan
             x="87.512049"
             y="92.534423"
             id="tspan3">I</tspan></text></g><path
         id="rect47"
         style="fill:#000000;fill-opacity:1;stroke-width:0.264583"
         d="m 17.587314,33.158432 -2.053105,1.185458 2.053105,1.185457 v -0.506429 h 7.353556 v -1.194759 h -7.353556 z" /><path
         id="path47"
         style="fill:#000000;fill-opacity:1;stroke-width:0.264583"
         d="m 48.733679,33.158432 2.053105,1.185458 -2.053105,1.185457 v -0.506429 h -7.353556 v -1.194759 h 7.353556 z" /><path
         id="path48"
         style="fill:#000000;fill-opacity:1;stroke-width:0.214752"
         d="m 31.890575,37.69465 1.185458,1.35257 1.185457,-1.35257 h -0.506429 v -4.844468 h -1.194759 v 4.844468 z" /><path
         id="path49"
         style="fill:#000000;fill-opacity:1;stroke-width:0.214752"
         d="m 31.890575,4.5052911 1.185458,-1.35257 1.185457,1.35257 h -0.506429 v 4.844468 h -1.194759 v -4.844468 z" /><g
         id="g52"
         inkscape:label="punching"><rect
           style="fill:#000000;fill-opacity:1;stroke-width:0.13316"
           id="rect50"
           width="4.8899503"
           height="0.69861293"
           x="-7.464982"
           y="75.265831"
           ry="0.34170097"
           transform="matrix(0.33973893,-0.94051978,0.99586224,0.09087574,0,0)" /><rect
           style="fill:#000000;fill-opacity:1;stroke-width:0.137348"
           id="rect51"
           width="4.9121141"
           height="0.73990893"
           x="-9.8349152"
           y="74.244179"
           ry="0.36189941"
           transform="matrix(0.02304061,-0.99973453,0.99999963,8.5990155e-4,0,0)" /><rect
           style="fill:#000000;fill-opacity:1;stroke-width:0.131023"
           id="rect52"
           width="4.9788132"
           height="0.66430151"
           x="-44.318859"
           y="61.884304"
           ry="0.32491881"
           transform="matrix(-0.44856213,-0.89375165,0.9097516,-0.41515301,0,0)" /><ellipse
           style="fill:#000000;fill-opacity:1;stroke-width:0.264583"
           id="path52"
           cx="74.579308"
           cy="3.9916375"
           rx="1.3852057"
           ry="1.1993855" /><rect
           style="fill:#000000;fill-opacity:1;stroke-width:0.0791689"
           id="rect54"
           width="2.5559473"
           height="0.47245324"
           x="59.811687"
           y="39.47871"
           ry="0.23108324"
           transform="matrix(0.88690753,-0.46194701,0.47828046,0.87820715,0,0)" /><rect
           style="fill:#000000;fill-opacity:1;stroke-width:0.1046"
           id="rect56"
           width="4.4604421"
           height="0.47259659"
           x="73.637672"
           y="10.839032"
           ry="0.23115335"
           transform="matrix(0.99775864,-0.06691552,0.0975991,0.99522581,0,0)" /><rect
           style="fill:#000000;fill-opacity:1;stroke-width:0.0772339"
           id="rect57"
           width="2.4934769"
           height="0.46090588"
           x="-35.669365"
           y="-64.097824"
           ry="0.22543529"
           transform="matrix(-0.5601843,0.828368,-0.83859258,-0.54475911,0,0)" /></g><g
         id="g63"
         inkscape:label="kicking"
         transform="translate(0.51449384,11.833358)"><rect
           style="fill:#000000;fill-opacity:1;stroke-width:0.13316"
           id="rect58"
           width="4.8899503"
           height="0.69861293"
           x="-7.464982"
           y="75.265831"
           ry="0.34170097"
           transform="matrix(0.33973893,-0.94051978,0.99586224,0.09087574,0,0)" /><rect
           style="fill:#000000;fill-opacity:1;stroke-width:0.137348"
           id="rect59"
           width="4.9121141"
           height="0.73990893"
           x="-55.440914"
           y="51.446445"
           ry="0.36189941"
           transform="matrix(-0.62849327,-0.77781503,0.76368309,-0.64559131,0,0)" /><rect
           style="fill:#000000;fill-opacity:1;stroke-width:0.163602"
           id="rect60"
           width="6.4161291"
           height="0.80371606"
           x="-58.582275"
           y="-53.08292"
           ry="0.39310837"
           transform="matrix(-0.7947235,0.60697163,-0.62275093,-0.78242014,0,0)" /><ellipse
           style="fill:#000000;fill-opacity:1;stroke-width:0.264583"
           id="ellipse60"
           cx="50.730785"
           cy="49.565918"
           rx="1.3852057"
           ry="1.1993855"
           transform="rotate(-40.259293)" /><rect
           style="fill:#000000;fill-opacity:1;stroke-width:0.0791689"
           id="rect61"
           width="2.5559473"
           height="0.47245324"
           x="17.063135"
           y="68.887169"
           ry="0.23108324"
           transform="matrix(0.37829145,-0.92568655,0.93252845,0.36109651,0,0)" /><rect
           style="fill:#000000;fill-opacity:1;stroke-width:0.1046"
           id="rect62"
           width="4.4604421"
           height="0.47259659"
           x="45.441639"
           y="54.736137"
           ry="0.23115335"
           transform="matrix(0.71817322,-0.69586438,0.71764303,0.69641115,0,0)" /><rect
           style="fill:#000000;fill-opacity:1;stroke-width:0.0772339"
           id="rect63"
           width="2.4934769"
           height="0.46090588"
           x="15.549359"
           y="-69.873459"
           ry="0.22543529"
           transform="matrix(0.10783883,0.99416839,-0.99200255,0.12621783,0,0)" /></g><g
         id="g78"
         inkscape:label="letra0"
         transform="matrix(0.04536482,0,0,-0.04536482,-124.6244,9.4714408)"><path
           d="m 3964.6342,151.14953 c -5.0606,-2.39709 -11.7192,-7.99028 -14.6489,-11.98543 -5.3269,-7.19125 -5.5932,-11.45274 -6.3922,-97.215114 -0.7991,-99.079519 -0.2664,-101.210259 16.2469,-113.462029 7.1912,-5.32686 11.4527,-5.5932 94.5516,-6.39223 55.3994,-0.53268 90.5566,0 96.4161,1.8644 5.3269,1.59806 13.0508,6.39223 17.3123,10.92006 l 7.9903,8.25663 v 95.617055 95.350718 l -6.6586,7.19126 c -13.5835,14.64885 -14.1161,14.64885 -108.4015,14.64885 -78.0384,0 -88.4258,-0.53269 -96.416,-4.79417 z"
           id="path77"
           style="stroke-width:0.266343" /><text
           xml:space="preserve"
           transform="matrix(-8.9545432,0,0,-8.9545432,4869.866,805.36193)"
           id="text77"
           style="font-style:normal;font-variant:normal;font-weight:bold;font-stretch:normal;font-size:21.3333px;font-family:Arial;-inkscape-font-specification:'Arial Bold';text-align:center;white-space:pre;shape-inside:url(#rect78);fill:#ffffff"><tspan
             x="84.543304"
             y="92.534423"
             id="tspan4">0</tspan></text></g><g
         id="g84"
         inkscape:label="punching"
         transform="translate(-25.4,-0.66145846)"><rect
           style="fill:#000000;fill-opacity:1;stroke-width:0.13316"
           id="rect79"
           width="4.8899503"
           height="0.69861293"
           x="-7.464982"
           y="75.265831"
           ry="0.34170097"
           transform="matrix(0.33973893,-0.94051978,0.99586224,0.09087574,0,0)" /><rect
           style="fill:#000000;fill-opacity:1;stroke-width:0.147544"
           id="rect80"
           width="5.4767179"
           height="0.76582032"
           x="-13.02382"
           y="76.137756"
           ry="0.37457302"
           transform="matrix(0.16702699,-0.98595232,0.99922115,-0.03945991,0,0)" /><rect
           style="fill:#000000;fill-opacity:1;stroke-width:0.131023"
           id="rect81"
           width="4.9788132"
           height="0.66430151"
           x="-44.318859"
           y="61.884304"
           ry="0.32491881"
           transform="matrix(-0.44856213,-0.89375165,0.9097516,-0.41515301,0,0)" /><ellipse
           style="fill:#000000;fill-opacity:1;stroke-width:0.264583"
           id="ellipse81"
           cx="75.2351"
           cy="3.5515161"
           rx="1.3852057"
           ry="1.1993855" /><rect
           style="fill:#000000;fill-opacity:1;stroke-width:0.102161"
           id="rect84"
           width="3.2654076"
           height="0.6157977"
           x="-64.233917"
           y="34.372597"
           ry="0.30119497"
           transform="matrix(-0.85252196,-0.5226914,0.65424654,-0.75628134,0,0)" /><rect
           style="fill:#000000;fill-opacity:1;stroke-width:0.109034"
           id="rect86"
           width="3.7179666"
           height="0.61606711"
           x="-24.40185"
           y="69.728065"
           ry="0.30132675"
           transform="matrix(-0.36538154,-0.93085785,0.97588321,-0.21829329,0,0)" /><rect
           style="fill:#000000;fill-opacity:1;stroke-width:0.102161"
           id="rect87"
           width="3.2654076"
           height="0.6157977"
           x="-64.041985"
           y="35.027103"
           ry="0.30119497"
           transform="matrix(-0.85252196,-0.5226914,0.65424654,-0.75628134,0,0)" /><rect
           style="fill:#000000;fill-opacity:1;stroke-width:0.109034"
           id="rect88"
           width="3.7179666"
           height="0.61606711"
           x="-7.6339087"
           y="75.941399"
           ry="0.30132675"
           transform="matrix(-0.16307104,-0.98661433,0.99995173,-0.009825,0,0)" /></g><path
         id="rect174"
         style="fill:#ffffff;fill-opacity:1;stroke-width:0.167323"
         d="m -32.75007,11.156942 -2.089795,3.619934 h 1.033529 c -0.0241,0.03547 -0.03824,0.07824 -0.03824,0.12454 v 4.323767 c 0,0.122764 0.09893,0.221692 0.221692,0.221692 h 1.697054 c 0.122764,0 0.221692,-0.09893 0.221692,-0.221692 v -4.323767 c 0,-0.0463 -0.01415,-0.08907 -0.03824,-0.12454 h 1.082105 z"
         transform="scale(-1,1)" /><path
         id="path175"
         style="fill:#ffffff;fill-opacity:1;stroke-width:0.167323"
         d="m 32.750067,31.186688 -2.089795,-3.619935 h 1.033529 c -0.0241,-0.03547 -0.03824,-0.07824 -0.03824,-0.124539 v -4.323768 c 0,-0.122763 0.09893,-0.221691 0.221693,-0.221691 h 1.697054 c 0.122764,0 0.221692,0.09893 0.221692,0.221691 v 4.323768 c 0,0.0463 -0.01415,0.08907 -0.03824,0.124539 h 1.082105 z" /><path
         id="path176"
         style="fill:#ffffff;fill-opacity:1;stroke-width:0.167323"
         d="m 49.710609,27.041723 -3.619935,2.089795 v -1.033529 c -0.03547,0.0241 -0.07824,0.03824 -0.124539,0.03824 h -4.323768 c -0.122763,0 -0.221691,-0.09893 -0.221691,-0.221693 v -1.697054 c 0,-0.122764 0.09893,-0.221692 0.221691,-0.221692 h 4.323768 c 0.0463,0 0.08907,0.01415 0.124539,0.03824 v -1.082105 z" /><path
         id="path177"
         style="fill:#ffffff;fill-opacity:1;stroke-width:0.167323"
         d="m 15.789528,27.041723 3.619935,2.089795 v -1.033529 c 0.03547,0.0241 0.07824,0.03824 0.124539,0.03824 h 4.323768 c 0.122763,0 0.221691,-0.09893 0.221691,-0.221693 v -1.697054 c 0,-0.122764 -0.09893,-0.221692 -0.221691,-0.221692 h -4.323768 c -0.0463,0 -0.08907,0.01415 -0.124539,0.03824 v -1.082105 z" /><g
         id="g182"
         inkscape:label="kicking"
         transform="translate(0.74835468,23.853805)"><rect
           style="fill:#000000;fill-opacity:1;stroke-width:0.119972"
           id="rect177"
           width="3.7983928"
           height="0.73005849"
           x="-8.8686066"
           y="73.651947"
           ry="0.35708141"
           transform="matrix(0.45802028,-0.88894174,0.99795982,0.06384512,0,0)" /><rect
           style="fill:#000000;fill-opacity:1;stroke-width:0.137348"
           id="rect178"
           width="4.9121141"
           height="0.73990893"
           x="-53.744087"
           y="49.248405"
           ry="0.36189941"
           transform="matrix(-0.62849327,-0.77781503,0.76368309,-0.64559131,0,0)" /><rect
           style="fill:#000000;fill-opacity:1;stroke-width:0.163602"
           id="rect179"
           width="6.4161291"
           height="0.80371606"
           x="-75.055206"
           y="-20.190706"
           ry="0.39310837"
           transform="matrix(-0.98913132,0.14703482,-0.1667959,-0.98599144,0,0)" /><ellipse
           style="fill:#000000;fill-opacity:1;stroke-width:0.264583"
           id="ellipse179"
           cx="48.490215"
           cy="48.015217"
           rx="1.3852057"
           ry="1.1993855"
           transform="rotate(-40.259293)" /><rect
           style="fill:#000000;fill-opacity:1;stroke-width:0.0791689"
           id="rect180"
           width="2.5559473"
           height="0.47245324"
           x="15.979197"
           y="66.383217"
           ry="0.23108324"
           transform="matrix(0.37829145,-0.92568655,0.93252845,0.36109651,0,0)" /><rect
           style="fill:#000000;fill-opacity:1;stroke-width:0.1046"
           id="rect181"
           width="4.4604421"
           height="0.47259659"
           x="-58.131306"
           y="-36.881794"
           ry="0.23115335"
           transform="matrix(-0.89749988,0.44101469,-0.46843457,-0.88349819,0,0)" /><rect
           style="fill:#000000;fill-opacity:1;stroke-width:0.0772339"
           id="rect182"
           width="2.4934769"
           height="0.46090588"
           x="15.301268"
           y="-67.133247"
           ry="0.22543529"
           transform="matrix(0.10783883,0.99416839,-0.99200255,0.12621783,0,0)" /><rect
           style="fill:#000000;fill-opacity:1;stroke-width:0.106872"
           id="rect183"
           width="3.4118762"
           height="0.6449526"
           x="-72.853676"
           y="57.458344"
           ry="0.31545499"
           transform="matrix(-0.52176956,-0.85308647,0.58093343,-0.81395107,0,0)" /></g></g><g
       id="g124"
       inkscape:label="controles1"
       transform="translate(-5.4255714)"><g
         id="g89"
         inkscape:label="letraS"
         transform="matrix(0.04536482,0,0,-0.04536482,-151.426,28.853731)"><path
           d="m 3964.6342,151.14953 c -5.0606,-2.39709 -11.7192,-7.99028 -14.6489,-11.98543 -5.3269,-7.19125 -5.5932,-11.45274 -6.3922,-97.215114 -0.7991,-99.079519 -0.2664,-101.210259 16.2469,-113.462029 7.1912,-5.32686 11.4527,-5.5932 94.5516,-6.39223 55.3994,-0.53268 90.5566,0 96.4161,1.8644 5.3269,1.59806 13.0508,6.39223 17.3123,10.92006 l 7.9903,8.25663 v 95.617055 95.350718 l -6.6586,7.19126 c -13.5835,14.64885 -14.1161,14.64885 -108.4015,14.64885 -78.0384,0 -88.4258,-0.53269 -96.416,-4.79417 z"
           id="path88"
           style="stroke-width:0.266343" /><text
           xml:space="preserve"
           transform="matrix(8.9545432,0,0,-8.9545432,3250.9301,805.36193)"
           id="text88"
           style="font-style:normal;font-variant:normal;font-weight:bold;font-stretch:normal;font-size:21.3333px;font-family:Arial;-inkscape-font-specification:'Arial Bold';text-align:center;white-space:pre;shape-inside:url(#rect124);fill:#ffffff"><tspan
             x="83.361014"
             y="92.534423"
             id="tspan5">S</tspan></text></g><g
         id="g90"
         inkscape:label="letraW"
         transform="matrix(0.04536482,0,0,-0.04536482,-151.426,17.12335)"><path
           d="m 3964.6342,151.14953 c -5.0606,-2.39709 -11.7192,-7.99028 -14.6489,-11.98543 -5.3269,-7.19125 -5.5932,-11.45274 -6.3922,-97.215114 -0.7991,-99.079519 -0.2664,-101.210259 16.2469,-113.462029 7.1912,-5.32686 11.4527,-5.5932 94.5516,-6.39223 55.3994,-0.53268 90.5566,0 96.4161,1.8644 5.3269,1.59806 13.0508,6.39223 17.3123,10.92006 l 7.9903,8.25663 v 95.617055 95.350718 l -6.6586,7.19126 c -13.5835,14.64885 -14.1161,14.64885 -108.4015,14.64885 -78.0384,0 -88.4258,-0.53269 -96.416,-4.79417 z"
           id="path89"
           style="stroke-width:0.266343" /><text
           xml:space="preserve"
           transform="matrix(8.9545432,0,0,-8.9545432,3250.9301,805.36193)"
           id="text89"
           style="font-style:normal;font-variant:normal;font-weight:bold;font-stretch:normal;font-size:21.3333px;font-family:Arial;-inkscape-font-specification:'Arial Bold';text-align:center;white-space:pre;shape-inside:url(#rect125);fill:#ffffff"><tspan
             x="80.407894"
             y="92.534423"
             id="tspan6">W</tspan></text></g><g
         id="g91"
         inkscape:label="letraA"
         transform="matrix(0.04536482,0,0,-0.04536482,-164.02531,28.853731)"><path
           d="m 3964.6342,151.14953 c -5.0606,-2.39709 -11.7192,-7.99028 -14.6489,-11.98543 -5.3269,-7.19125 -5.5932,-11.45274 -6.3922,-97.215114 -0.7991,-99.079519 -0.2664,-101.210259 16.2469,-113.462029 7.1912,-5.32686 11.4527,-5.5932 94.5516,-6.39223 55.3994,-0.53268 90.5566,0 96.4161,1.8644 5.3269,1.59806 13.0508,6.39223 17.3123,10.92006 l 7.9903,8.25663 v 95.617055 95.350718 l -6.6586,7.19126 c -13.5835,14.64885 -14.1161,14.64885 -108.4015,14.64885 -78.0384,0 -88.4258,-0.53269 -96.416,-4.79417 z"
           id="path90"
           style="stroke-width:0.266343" /><text
           xml:space="preserve"
           transform="matrix(8.9545432,0,0,-8.9545432,3250.9301,805.36193)"
           id="text90"
           style="font-style:normal;font-variant:normal;font-weight:bold;font-stretch:normal;font-size:21.3333px;font-family:Arial;-inkscape-font-specification:'Arial Bold';text-align:center;white-space:pre;shape-inside:url(#rect126);fill:#ffffff"><tspan
             x="82.772473"
             y="92.534423"
             id="tspan7">A</tspan></text></g><g
         id="g92"
         inkscape:label="letraD"
         transform="matrix(0.04536482,0,0,-0.04536482,-138.91359,28.853731)"><path
           d="m 3964.6342,151.14953 c -5.0606,-2.39709 -11.7192,-7.99028 -14.6489,-11.98543 -5.3269,-7.19125 -5.5932,-11.45274 -6.3922,-97.215114 -0.7991,-99.079519 -0.2664,-101.210259 16.2469,-113.462029 7.1912,-5.32686 11.4527,-5.5932 94.5516,-6.39223 55.3994,-0.53268 90.5566,0 96.4161,1.8644 5.3269,1.59806 13.0508,6.39223 17.3123,10.92006 l 7.9903,8.25663 v 95.617055 95.350718 l -6.6586,7.19126 c -13.5835,14.64885 -14.1161,14.64885 -108.4015,14.64885 -78.0384,0 -88.4258,-0.53269 -96.416,-4.79417 z"
           id="path91"
           style="stroke-width:0.266343" /><text
           xml:space="preserve"
           transform="matrix(8.9545432,0,0,-8.9545432,3250.9301,805.36193)"
           id="text91"
           style="font-style:normal;font-variant:normal;font-weight:bold;font-stretch:normal;font-size:21.3333px;font-family:Arial;-inkscape-font-specification:'Arial Bold';text-align:center;white-space:pre;shape-inside:url(#rect127);fill:#ffffff"><tspan
             x="82.772473"
             y="92.534423"
             id="tspan8">D</tspan></text></g><g
         id="g93"
         inkscape:label="letraE"
         transform="matrix(0.04536482,0,0,-0.04536482,-98.099925,9.3391491)"><path
           d="m 3964.6342,151.14953 c -5.0606,-2.39709 -11.7192,-7.99028 -14.6489,-11.98543 -5.3269,-7.19125 -5.5932,-11.45274 -6.3922,-97.215114 -0.7991,-99.079519 -0.2664,-101.210259 16.2469,-113.462029 7.1912,-5.32686 11.4527,-5.5932 94.5516,-6.39223 55.3994,-0.53268 90.5566,0 96.4161,1.8644 5.3269,1.59806 13.0508,6.39223 17.3123,10.92006 l 7.9903,8.25663 v 95.617055 95.350718 l -6.6586,7.19126 c -13.5835,14.64885 -14.1161,14.64885 -108.4015,14.64885 -78.0384,0 -88.4258,-0.53269 -96.416,-4.79417 z"
           id="path92"
           style="stroke-width:0.266343" /><text
           xml:space="preserve"
           transform="matrix(8.9545432,0,0,-8.9545432,3250.9301,805.36193)"
           id="text92"
           style="font-style:normal;font-variant:normal;font-weight:bold;font-stretch:normal;font-size:21.3333px;font-family:Arial;-inkscape-font-specification:'Arial Bold';text-align:center;white-space:pre;shape-inside:url(#rect128);fill:#ffffff"><tspan
             x="83.361014"
             y="92.534423"
             id="tspan9">E</tspan></text></g><g
         id="g94"
         inkscape:label="letraR"
         transform="matrix(0.04536482,0,0,-0.04536482,-98.099925,22.002918)"><path
           d="m 3964.6342,151.14953 c -5.0606,-2.39709 -11.7192,-7.99028 -14.6489,-11.98543 -5.3269,-7.19125 -5.5932,-11.45274 -6.3922,-97.215114 -0.7991,-99.079519 -0.2664,-101.210259 16.2469,-113.462029 7.1912,-5.32686 11.4527,-5.5932 94.5516,-6.39223 55.3994,-0.53268 90.5566,0 96.4161,1.8644 5.3269,1.59806 13.0508,6.39223 17.3123,10.92006 l 7.9903,8.25663 v 95.617055 95.350718 l -6.6586,7.19126 c -13.5835,14.64885 -14.1161,14.64885 -108.4015,14.64885 -78.0384,0 -88.4258,-0.53269 -96.416,-4.79417 z"
           id="path93"
           style="stroke-width:0.266343" /><text
           xml:space="preserve"
           transform="matrix(8.9545432,0,0,-8.9545432,3250.9301,805.36193)"
           id="text93"
           style="font-style:normal;font-variant:normal;font-weight:bold;font-stretch:normal;font-size:21.3333px;font-family:Arial;-inkscape-font-specification:'Arial Bold';text-align:center;white-space:pre;shape-inside:url(#rect129);fill:#ffffff"><tspan
             x="82.772473"
             y="92.534423"
             id="tspan10">R</tspan></text></g><g
         id="g95"
         inkscape:label="letraT"
         transform="matrix(0.04536482,0,0,-0.04536482,-98.099925,34.564335)"><path
           d="m 3964.6342,151.14953 c -5.0606,-2.39709 -11.7192,-7.99028 -14.6489,-11.98543 -5.3269,-7.19125 -5.5932,-11.45274 -6.3922,-97.215114 -0.7991,-99.079519 -0.2664,-101.210259 16.2469,-113.462029 7.1912,-5.32686 11.4527,-5.5932 94.5516,-6.39223 55.3994,-0.53268 90.5566,0 96.4161,1.8644 5.3269,1.59806 13.0508,6.39223 17.3123,10.92006 l 7.9903,8.25663 v 95.617055 95.350718 l -6.6586,7.19126 c -13.5835,14.64885 -14.1161,14.64885 -108.4015,14.64885 -78.0384,0 -88.4258,-0.53269 -96.416,-4.79417 z"
           id="path94"
           style="stroke-width:0.266343" /><text
           xml:space="preserve"
           transform="matrix(8.9545432,0,0,-8.9545432,3250.9301,805.36193)"
           id="text94"
           style="font-style:normal;font-variant:normal;font-weight:bold;font-stretch:normal;font-size:21.3333px;font-family:Arial;-inkscape-font-specification:'Arial Bold';text-align:center;white-space:pre;shape-inside:url(#rect130);fill:#ffffff"><tspan
             x="83.959971"
             y="92.534423"
             id="tspan11">T</tspan></text></g><path
         id="path95"
         style="fill:#000000;fill-opacity:1;stroke-width:0.264583"
         d="m 17.587314,33.158432 -2.053105,1.185458 2.053105,1.185457 v -0.506429 h 7.353556 v -1.194759 h -7.353556 z" /><path
         id="path96"
         style="fill:#000000;fill-opacity:1;stroke-width:0.264583"
         d="m 48.733679,33.158432 2.053105,1.185458 -2.053105,1.185457 v -0.506429 h -7.353556 v -1.194759 h 7.353556 z" /><path
         id="path97"
         style="fill:#000000;fill-opacity:1;stroke-width:0.214752"
         d="m 31.890575,37.69465 1.185458,1.35257 1.185457,-1.35257 h -0.506429 v -4.844468 h -1.194759 v 4.844468 z" /><path
         id="path98"
         style="fill:#000000;fill-opacity:1;stroke-width:0.214752"
         d="m 31.890575,4.5052911 1.185458,-1.35257 1.185457,1.35257 h -0.506429 v 4.844468 h -1.194759 v -4.844468 z" /><g
         id="g103"
         inkscape:label="punching"><rect
           style="fill:#000000;fill-opacity:1;stroke-width:0.13316"
           id="rect98"
           width="4.8899503"
           height="0.69861293"
           x="-7.464982"
           y="75.265831"
           ry="0.34170097"
           transform="matrix(0.33973893,-0.94051978,0.99586224,0.09087574,0,0)" /><rect
           style="fill:#000000;fill-opacity:1;stroke-width:0.137348"
           id="rect99"
           width="4.9121141"
           height="0.73990893"
           x="-9.8349152"
           y="74.244179"
           ry="0.36189941"
           transform="matrix(0.02304061,-0.99973453,0.99999963,8.5990155e-4,0,0)" /><rect
           style="fill:#000000;fill-opacity:1;stroke-width:0.131023"
           id="rect100"
           width="4.9788132"
           height="0.66430151"
           x="-44.318859"
           y="61.884304"
           ry="0.32491881"
           transform="matrix(-0.44856213,-0.89375165,0.9097516,-0.41515301,0,0)" /><ellipse
           style="fill:#000000;fill-opacity:1;stroke-width:0.264583"
           id="ellipse100"
           cx="74.579308"
           cy="3.9916375"
           rx="1.3852057"
           ry="1.1993855" /><rect
           style="fill:#000000;fill-opacity:1;stroke-width:0.0791689"
           id="rect101"
           width="2.5559473"
           height="0.47245324"
           x="59.811687"
           y="39.47871"
           ry="0.23108324"
           transform="matrix(0.88690753,-0.46194701,0.47828046,0.87820715,0,0)" /><rect
           style="fill:#000000;fill-opacity:1;stroke-width:0.1046"
           id="rect102"
           width="4.4604421"
           height="0.47259659"
           x="73.637672"
           y="10.839032"
           ry="0.23115335"
           transform="matrix(0.99775864,-0.06691552,0.0975991,0.99522581,0,0)" /><rect
           style="fill:#000000;fill-opacity:1;stroke-width:0.0772339"
           id="rect103"
           width="2.4934769"
           height="0.46090588"
           x="-35.669365"
           y="-64.097824"
           ry="0.22543529"
           transform="matrix(-0.5601843,0.828368,-0.83859258,-0.54475911,0,0)" /></g><g
         id="g109"
         inkscape:label="kicking"
         transform="translate(0.51449384,11.833358)"><rect
           style="fill:#000000;fill-opacity:1;stroke-width:0.13316"
           id="rect104"
           width="4.8899503"
           height="0.69861293"
           x="-7.464982"
           y="75.265831"
           ry="0.34170097"
           transform="matrix(0.33973893,-0.94051978,0.99586224,0.09087574,0,0)" /><rect
           style="fill:#000000;fill-opacity:1;stroke-width:0.137348"
           id="rect105"
           width="4.9121141"
           height="0.73990893"
           x="-55.440914"
           y="51.446445"
           ry="0.36189941"
           transform="matrix(-0.62849327,-0.77781503,0.76368309,-0.64559131,0,0)" /><rect
           style="fill:#000000;fill-opacity:1;stroke-width:0.163602"
           id="rect106"
           width="6.4161291"
           height="0.80371606"
           x="-58.582275"
           y="-53.08292"
           ry="0.39310837"
           transform="matrix(-0.7947235,0.60697163,-0.62275093,-0.78242014,0,0)" /><ellipse
           style="fill:#000000;fill-opacity:1;stroke-width:0.264583"
           id="ellipse106"
           cx="50.730785"
           cy="49.565918"
           rx="1.3852057"
           ry="1.1993855"
           transform="rotate(-40.259293)" /><rect
           style="fill:#000000;fill-opacity:1;stroke-width:0.0791689"
           id="rect107"
           width="2.5559473"
           height="0.47245324"
           x="17.063135"
           y="68.887169"
           ry="0.23108324"
           transform="matrix(0.37829145,-0.92568655,0.93252845,0.36109651,0,0)" /><rect
           style="fill:#000000;fill-opacity:1;stroke-width:0.1046"
           id="rect108"
           width="4.4604421"
           height="0.47259659"
           x="45.441639"
           y="54.736137"
           ry="0.23115335"
           transform="matrix(0.71817322,-0.69586438,0.71764303,0.69641115,0,0)" /><rect
           style="fill:#000000;fill-opacity:1;stroke-width:0.0772339"
           id="rect109"
           width="2.4934769"
           height="0.46090588"
           x="15.549359"
           y="-69.873459"
           ry="0.22543529"
           transform="matrix(0.10783883,0.99416839,-0.99200255,0.12621783,0,0)" /></g><g
         id="g116"
         inkscape:label="kicking"
         transform="translate(0.51449384,24.274754)"><rect
           style="fill:#000000;fill-opacity:1;stroke-width:0.112281"
           id="rect110"
           width="3.9273324"
           height="0.61844701"
           x="26.717287"
           y="-64.484375"
           ry="0.30249077"
           transform="matrix(0.6288776,-0.77750431,-0.85994668,-0.51038388,0,0)" /><rect
           style="fill:#000000;fill-opacity:1;stroke-width:0.137348"
           id="rect111"
           width="4.9121141"
           height="0.73990893"
           x="-26.845024"
           y="70.134598"
           ry="0.36189941"
           transform="matrix(-0.21419632,-0.97679063,0.97179924,-0.23580976,0,0)" /><rect
           style="fill:#000000;fill-opacity:1;stroke-width:0.163602"
           id="rect112"
           width="6.4161291"
           height="0.80371606"
           x="-76.632622"
           y="26.399197"
           ry="0.39310837"
           transform="matrix(-0.88300141,-0.46937033,0.4516093,-0.8922158,0,0)" /><ellipse
           style="fill:#000000;fill-opacity:1;stroke-width:0.264583"
           id="ellipse112"
           cx="70.077797"
           cy="20.993689"
           rx="1.3852057"
           ry="1.1993855"
           transform="rotate(-13.688629)" /><rect
           style="fill:#000000;fill-opacity:1;stroke-width:0.0791689"
           id="rect113"
           width="2.5559473"
           height="0.47245324"
           x="47.724609"
           y="52.480728"
           ry="0.23108324"
           transform="matrix(0.7523983,-0.65870843,0.67251904,0.74007982,0,0)" /><rect
           style="fill:#000000;fill-opacity:1;stroke-width:0.0873021"
           id="rect114"
           width="3.2016916"
           height="0.45864367"
           x="74.090843"
           y="2.0831294"
           ry="0.2243288"
           transform="matrix(0.99889543,0.04698841,-0.24273472,0.9700927,0,0)" /><rect
           style="fill:#000000;fill-opacity:1;stroke-width:0.0772339"
           id="rect115"
           width="2.4934769"
           height="0.46090588"
           x="-18.956469"
           y="-69.894196"
           ry="0.22543529"
           transform="matrix(-0.34824347,0.93740412,-0.94368798,-0.33083682,0,0)" /><rect
           style="fill:#000000;fill-opacity:1;stroke-width:0.113844"
           id="rect116"
           width="3.5281487"
           height="0.7077235"
           x="-48.25959"
           y="-66.325584"
           ry="0.34615707"
           transform="matrix(-0.31106033,-0.95039017,-0.88180294,0.47161804,0,0)" /></g><g
         id="g117"
         inkscape:label="letraE"
         transform="matrix(0.04536482,0,0,-0.04536482,-124.6244,9.4714408)"><path
           d="m 3964.6342,151.14953 c -5.0606,-2.39709 -11.7192,-7.99028 -14.6489,-11.98543 -5.3269,-7.19125 -5.5932,-11.45274 -6.3922,-97.215114 -0.7991,-99.079519 -0.2664,-101.210259 16.2469,-113.462029 7.1912,-5.32686 11.4527,-5.5932 94.5516,-6.39223 55.3994,-0.53268 90.5566,0 96.4161,1.8644 5.3269,1.59806 13.0508,6.39223 17.3123,10.92006 l 7.9903,8.25663 v 95.617055 95.350718 l -6.6586,7.19126 c -13.5835,14.64885 -14.1161,14.64885 -108.4015,14.64885 -78.0384,0 -88.4258,-0.53269 -96.416,-4.79417 z"
           id="path116"
           style="stroke-width:0.266343" /><text
           xml:space="preserve"
           transform="matrix(8.9545432,0,0,-8.9545432,3250.9301,805.36193)"
           id="text116"
           style="font-style:normal;font-variant:normal;font-weight:bold;font-stretch:normal;font-size:21.3333px;font-family:Arial;-inkscape-font-specification:'Arial Bold';text-align:center;white-space:pre;shape-inside:url(#rect131);fill:#ffffff"><tspan
             x="82.178724"
             y="92.534423"
             id="tspan12">Q</tspan></text></g><g
         id="g123"
         inkscape:label="punching"
         transform="translate(-25.4,-0.66145846)"><rect
           style="fill:#000000;fill-opacity:1;stroke-width:0.13316"
           id="rect117"
           width="4.8899503"
           height="0.69861293"
           x="-7.464982"
           y="75.265831"
           ry="0.34170097"
           transform="matrix(0.33973893,-0.94051978,0.99586224,0.09087574,0,0)" /><rect
           style="fill:#000000;fill-opacity:1;stroke-width:0.147544"
           id="rect118"
           width="5.4767179"
           height="0.76582032"
           x="-13.02382"
           y="76.137756"
           ry="0.37457302"
           transform="matrix(0.16702699,-0.98595232,0.99922115,-0.03945991,0,0)" /><rect
           style="fill:#000000;fill-opacity:1;stroke-width:0.131023"
           id="rect119"
           width="4.9788132"
           height="0.66430151"
           x="-44.318859"
           y="61.884304"
           ry="0.32491881"
           transform="matrix(-0.44856213,-0.89375165,0.9097516,-0.41515301,0,0)" /><ellipse
           style="fill:#000000;fill-opacity:1;stroke-width:0.264583"
           id="ellipse119"
           cx="75.2351"
           cy="3.5515161"
           rx="1.3852057"
           ry="1.1993855" /><rect
           style="fill:#000000;fill-opacity:1;stroke-width:0.102161"
           id="rect120"
           width="3.2654076"
           height="0.6157977"
           x="-64.233917"
           y="34.372597"
           ry="0.30119497"
           transform="matrix(-0.85252196,-0.5226914,0.65424654,-0.75628134,0,0)" /><rect
           style="fill:#000000;fill-opacity:1;stroke-width:0.109034"
           id="rect121"
           width="3.7179666"
           height="0.61606711"
           x="-24.40185"
           y="69.728065"
           ry="0.30132675"
           transform="matrix(-0.36538154,-0.93085785,0.97588321,-0.21829329,0,0)" /><rect
           style="fill:#000000;fill-opacity:1;stroke-width:0.102161"
           id="rect122"
           width="3.2654076"
           height="0.6157977"
           x="-64.041985"
           y="35.027103"
           ry="0.30119497"
           transform="matrix(-0.85252196,-0.5226914,0.65424654,-0.75628134,0,0)" /><rect
           style="fill:#000000;fill-opacity:1;stroke-width:0.109034"
           id="rect123"
           width="3.7179666"
           height="0.61606711"
           x="-7.6339087"
           y="75.941399"
           ry="0.30132675"
           transform="matrix(-0.16307104,-0.98661433,0.99995173,-0.009825,0,0)" /></g></g><rect
       style="fill:#ffff00;fill-opacity:1;stroke-width:0.264583"
       id="rect185"
       width="12.347852"
       height="34.611404"
       x="88.586479"
       y="2.9934187"
       ry="0.31545499" /><text
       xml:space="preserve"
       id="text183"
       style="font-style:normal;font-variant:normal;font-weight:bold;font-stretch:normal;font-size:16px;font-family:Arial;-inkscape-font-specification:'Arial Bold';text-align:center;white-space:pre;shape-inside:url(#rect184);fill:#ffffff;fill-opacity:1"
       transform="matrix(0.26458333,0,0,0.26458333,-0.66145833,2.1166667)"><tspan
         x="355.38477"
         y="29.968711"
         id="tspan14"><tspan
           style="fill:#000000"
           id="tspan13">F
</tspan></tspan><tspan
         x="358.04883"
         y="49.968711"
         id="tspan16"><tspan
           style="fill:#000000"
           id="tspan15">I
</tspan></tspan><tspan
         x="354.04883"
         y="69.968711"
         id="tspan18"><tspan
           style="fill:#000000"
           id="tspan17">G
</tspan></tspan><tspan
         x="354.49414"
         y="89.968711"
         id="tspan20"><tspan
           style="fill:#000000"
           id="tspan19">H
</tspan></tspan><tspan
         x="355.38477"
         y="109.96871"
         id="tspan22"><tspan
           style="fill:#000000"
           id="tspan21">T
</tspan></tspan></text></g></svg>
